<svg version="1.2" xmlns="http://www.w3.org/2000/svg" viewBox="0 0 640 522" width="640" height="522">
	<defs>
		<linearGradient id="g1" x2="1" gradientUnits="userSpaceOnUse" gradientTransform="matrix(561.294,526.93,-523.34,557.47,301.849,-211.512)">
			<stop offset="0" stop-color="#cea132"/>
			<stop offset=".247" stop-color="#fffe77"/>
			<stop offset=".674" stop-color="#cd9e2c"/>
			<stop offset="1" stop-color="#fff083"/>
		</linearGradient>
		<linearGradient id="g2" x2="1" gradientUnits="userSpaceOnUse" gradientTransform="matrix(732.23,-266.51,241.26,662.854,-154.354,95.362)">
			<stop offset="0" stop-color="#cea132"/>
			<stop offset=".247" stop-color="#fffe77"/>
			<stop offset=".674" stop-color="#cd9e2c"/>
			<stop offset="1" stop-color="#fff083"/>
		</linearGradient>
		<linearGradient id="g3" x2="1" gradientUnits="userSpaceOnUse" gradientTransform="matrix(0,-816.474,1378.168,0,216.104,525.917)">
			<stop offset="0" stop-color="#cea132"/>
			<stop offset=".247" stop-color="#fffe77"/>
			<stop offset=".674" stop-color="#cd9e2c"/>
			<stop offset="1" stop-color="#fff083"/>
		</linearGradient>
		<linearGradient id="g4" x2="1" gradientUnits="userSpaceOnUse" gradientTransform="matrix(600.471,0,0,359.241,19.738,14.889)">
			<stop offset="0" stop-color="#cea132"/>
			<stop offset=".247" stop-color="#fffe77"/>
			<stop offset=".674" stop-color="#cd9e2c"/>
			<stop offset="1" stop-color="#fff083"/>
		</linearGradient>
		<linearGradient id="g5" x2="1" gradientUnits="userSpaceOnUse" gradientTransform="matrix(0,-816.474,1378.168,0,216.104,525.917)">
			<stop offset="0" stop-color="#3b3b3b"/>
			<stop offset=".246" stop-color="#000000"/>
			<stop offset=".51" stop-color="#363636"/>
			<stop offset=".748" stop-color="#646464"/>
			<stop offset="1" stop-color="#101010"/>
		</linearGradient>
		<linearGradient id="g6" x2="1" gradientUnits="userSpaceOnUse" gradientTransform="matrix(0,315.74,-248.784,0,340.59,64.687)">
			<stop offset="0" stop-color="#cea132"/>
			<stop offset=".247" stop-color="#fffe77"/>
			<stop offset=".674" stop-color="#cd9e2c"/>
			<stop offset="1" stop-color="#fff083"/>
		</linearGradient>
		<linearGradient id="g7" x2="1" gradientUnits="userSpaceOnUse" gradientTransform="matrix(173.841,0,0,218.391,117.382,80.709)">
			<stop offset="0" stop-color="#cea132"/>
			<stop offset=".247" stop-color="#fffe77"/>
			<stop offset=".674" stop-color="#cd9e2c"/>
			<stop offset="1" stop-color="#fff083"/>
		</linearGradient>
		<linearGradient id="g8" x2="1" gradientUnits="userSpaceOnUse" gradientTransform="matrix(0,315.741,-301.296,0,539.181,64.687)">
			<stop offset="0" stop-color="#cea132"/>
			<stop offset=".247" stop-color="#fffe77"/>
			<stop offset=".674" stop-color="#cd9e2c"/>
			<stop offset="1" stop-color="#fff083"/>
		</linearGradient>
		<linearGradient id="g9" x2="1" gradientUnits="userSpaceOnUse" gradientTransform="matrix(207.445,0,0,214.785,326.319,84.316)">
			<stop offset="0" stop-color="#cea132"/>
			<stop offset=".247" stop-color="#fffe77"/>
			<stop offset=".674" stop-color="#cd9e2c"/>
			<stop offset="1" stop-color="#fff083"/>
		</linearGradient>
		<linearGradient id="g10" x2="1" gradientUnits="userSpaceOnUse" gradientTransform="matrix(554.051,1151.273,-2621.984,1261.828,368.682,-67.696)">
			<stop offset="0" stop-color="#000000"/>
			<stop offset="1" stop-color="#b3b3b3"/>
		</linearGradient>
	</defs>
	<style>
		.s0 { fill: url(#g1) } 
		.s1 { fill: url(#g2) } 
		.s2 { fill: url(#g3) } 
		.s3 { fill: url(#g4) } 
		.s4 { fill: url(#g5) } 
		.s5 { fill: url(#g6) } 
		.s6 { fill: url(#g7) } 
		.s7 { fill: url(#g8) } 
		.s8 { fill: url(#g9) } 
		.s9 { fill: #141414 } 
		.s10 { mix-blend-mode: screen;fill: url(#g10) } 
	</style>
	<g id="Layer 1">
	</g>
	<g id="&lt;Group&gt;">
		<g id="&lt;Group&gt;">
			<path id="&lt;Path&gt;" class="s0" d="m603.64 517.16h-567.34c-18.89 0-34.2-15.32-34.2-34.21v-447.06c0-18.89 15.31-34.21 34.2-34.21h567.34c18.89 0 34.21 15.32 34.21 34.21v447.06c0 18.89-15.32 34.21-34.21 34.21z"/>
			<path id="&lt;Compound Path&gt;" class="s1" d="m603.65 519.31h-567.35c-20.04 0-36.35-16.31-36.35-36.36v-447.06c0-20.05 16.31-36.35 36.35-36.35h567.35c20.04 0 36.35 16.3 36.35 36.35v447.06c0 20.05-16.31 36.36-36.35 36.36zm-567.35-515.48c-17.67 0-32.05 14.38-32.05 32.06v447.06c0 17.68 14.38 32.06 32.05 32.06h567.35c17.67 0 32.05-14.38 32.05-32.06v-447.06c0-17.68-14.38-32.06-32.05-32.06z"/>
		</g>
		<g id="&lt;Group&gt;">
			<path id="&lt;Path&gt;" class="s2" d="m590.46 369.84h-540.97c-14.06 0-25.46-11.4-25.46-25.46v-299.74c0-14.06 11.4-25.45 25.46-25.45h540.97c14.06 0 25.45 11.39 25.45 25.45v299.74c0 14.06-11.39 25.46-25.45 25.46z"/>
			<path id="&lt;Compound Path&gt;" class="s3" d="m590.46 14.89h-540.97c-16.41 0-29.75 13.35-29.75 29.75v299.74c0 16.4 13.34 29.75 29.75 29.75h540.97c16.4 0 29.75-13.35 29.75-29.75v-299.74c0-16.4-13.35-29.75-29.75-29.75zm0 4.29c14.06 0 25.45 11.4 25.45 25.46v299.74c0 14.06-11.39 25.46-25.45 25.46h-540.97c-14.06 0-25.46-11.4-25.46-25.46v-299.74c0-14.06 11.4-25.46 25.46-25.46z"/>
		</g>
		<path id="&lt;Path&gt;" class="s4" d="m590.46 369.84h-540.97c-14.06 0-25.46-11.4-25.46-25.46v-299.74c0-14.06 11.4-25.45 25.46-25.45h540.97c14.06 0 25.45 11.39 25.45 25.45v299.74c0 14.06-11.39 25.46-25.45 25.46z"/>
		<g id="&lt;Group&gt;">
			<g id="&lt;Group&gt;">
				<path id="&lt;Compound Path&gt;" class="s5" d="m289.08 257.26v39.69h-159.07v-31.57l81.19-76.68q12.92-12.33 17.44-21.2 4.51-8.87 4.51-17.59 0-12.63-8.57-19.4-8.57-6.76-25.11-6.76-13.84 0-24.96 5.26-11.13 5.27-18.64 15.79l-35.48-22.86q12.32-18.33 33.97-28.71 21.66-10.38 49.62-10.37 23.45 0 41.04 7.66 17.59 7.67 27.37 21.65 9.77 13.98 9.77 32.93 0 17.14-7.22 32.17-7.21 15.04-27.96 34.28l-48.41 45.71z"/>
				<path id="&lt;Compound Path&gt;" class="s6" d="m291.22 299.1h-163.36v-34.65l81.86-77.31c8.4-8.02 14.13-14.95 17-20.61 2.84-5.58 4.28-11.17 4.28-16.62 0-7.8-2.54-13.59-7.75-17.71-5.31-4.18-13.3-6.3-23.78-6.3-8.86 0-16.95 1.7-24.04 5.05-7.05 3.34-13.05 8.42-17.81 15.1l-1.19 1.66-39.05-25.15 1.22-1.81c8.41-12.5 20.13-22.41 34.84-29.46 14.65-7.02 31.66-10.58 50.54-10.58 15.86 0 29.96 2.64 41.9 7.84 12.04 5.25 21.55 12.78 28.27 22.39 6.74 9.65 10.16 21.15 10.16 34.16 0 11.7-2.5 22.84-7.43 33.1-4.9 10.22-14.47 21.98-28.44 34.93l-44.47 41.98h87.25zm-159.06-4.3h154.77v-35.4h-93.76l52.33-49.41c13.59-12.6 22.84-23.91 27.51-33.65 4.65-9.67 7-20.19 7-31.24 0-12.12-3.16-22.78-9.38-31.7-6.26-8.95-15.16-15.98-26.46-20.91-11.41-4.97-24.93-7.48-40.19-7.48-18.24 0-34.62 3.42-48.69 10.16-13.29 6.37-24 15.16-31.87 26.17l31.92 20.56c4.99-6.47 11.12-11.45 18.26-14.83 7.67-3.63 16.37-5.47 25.87-5.47 11.47 0 20.36 2.43 26.44 7.23 6.23 4.92 9.38 12.01 9.38 21.08 0 6.13-1.59 12.38-4.74 18.57-3.14 6.17-8.98 13.3-17.87 21.77l-80.52 76.05z"/>
			</g>
			<g id="&lt;Group&gt;">
				<path id="&lt;Compound Path&gt;" class="s7" d="m405.14 214.26l-28.26 29.47v53.22h-48.41v-210.49h48.41v98.33l93.21-98.33h54.13l-87.2 93.82 92.31 116.67h-56.83z"/>
				<path id="&lt;Compound Path&gt;" class="s8" d="m533.76 299.1h-62.28l-66.47-81.6-25.98 27.09v54.51h-52.71v-214.78h52.71v95.09l90.14-95.09h59.98l-89.31 96.07zm-60.25-4.3h51.38l-90.71-114.63 85.1-91.56h-48.27l-96.28 101.57v-101.57h-44.12v206.19h44.12v-51.93l30.54-31.85z"/>
			</g>
		</g>
		<g id="&lt;Group&gt;">
			<path id="&lt;Compound Path&gt;" class="s9" d="m121.08 479.58q-3.84 4.94-9.35 7.54-5.55 2.6-12.1 2.6-6.35 0-11.5-1.73-5.14-1.72-10.34-5.71-5.2-3.97-11.65-11.11-9.95-1.73-17.73-7.48-7.78-5.76-12.09-14.51-4.32-8.77-4.32-19.25 0-11.98 5.51-21.53 5.54-9.57 15.22-14.99 9.69-5.41 21.83-5.41 12.15 0 21.83 5.41 9.69 5.42 15.22 14.99 5.53 9.55 5.53 21.53 0 13.6-7.07 24.02-7.04 10.43-18.97 14.92 2.18 2.53 4.31 3.57 2.12 1.04 4.65 1.04 6.46 0 11.6-5.65zm-64.46-37.61q2.73 5.25 7.46 8.11 4.69 2.88 10.49 2.88 5.8 0 10.51-2.88 4.71-2.86 7.44-8.11 2.74-5.25 2.74-12.03 0-6.81-2.74-12.06-2.73-5.22-7.44-8.11-4.71-2.88-10.51-2.88-5.8 0-10.49 2.88-4.73 2.89-7.46 8.11-2.73 5.25-2.73 12.06 0 6.78 2.73 12.03z"/>
			<path id="&lt;Compound Path&gt;" class="s9" d="m140.61 462.07q-9.47-9.79-9.47-27.76v-44.7h21.67v44.01q0.02 19.34 14.55 19.34 14.46 0 14.46-19.34v-44.01h21.32v44.7q0.02 17.97-9.45 27.76-9.47 9.8-26.55 9.8-17.06 0-26.53-9.8z"/>
			<path id="&lt;Compound Path&gt;" class="s9" d="m270.79 454.59h-32.4l-6.02 15.65h-22.1l33.8-80.63h21.35l33.93 80.63h-22.54zm-6.36-16.81l-9.85-25.81-9.86 25.81z"/>
			<path id="&lt;Compound Path&gt;" class="s9" d="m308.75 389.61h36.22q12.59 0 22.34 4.96 9.74 4.94 15.1 14.05 5.35 9.1 5.37 21.31-0.02 12.21-5.37 21.31-5.36 9.1-15.1 14.06-9.75 4.94-22.34 4.94h-36.22zm35.35 62.44q9.85 0 15.82-5.87 5.95-5.88 5.97-16.24-0.02-10.37-5.97-16.24-5.97-5.88-15.82-5.88h-13.68v44.23z"/>
			<path id="&lt;Compound Path&gt;" class="s9" d="m510.45 389.61v80.63h-21.67v-31.44h-29.55v31.44h-21.67v-80.63h21.67v30.3h29.55v-30.3z"/>
			<path id="&lt;Compound Path&gt;" class="s9" d="m529.04 389.61h36.23q12.59 0 22.33 4.96 9.73 4.94 15.1 14.05 5.36 9.1 5.36 21.31 0 12.21-5.36 21.31-5.37 9.1-15.1 14.06-9.74 4.94-22.33 4.94h-36.23zm35.34 62.44q9.86 0 15.83-5.87 5.96-5.88 5.96-16.24 0-10.37-5.96-16.24-5.97-5.88-15.83-5.88h-13.66v44.23z"/>
		</g>
		<path id="&lt;Path&gt;" class="s10" d="m590.46 19.18h-540.97c-14.06 0-25.46 11.4-25.46 25.46v299.74q0.01 1.08 0.11 2.15c66.29-82.76 247.4-260.26 591.77-277.88v-24.01c0-14.06-11.39-25.46-25.45-25.46z"/>
	</g>
</svg>