<svg version="1.2" xmlns="http://www.w3.org/2000/svg" viewBox="0 0 640 522" width="640" height="522">
	<defs>
		<linearGradient id="g1" x2="1" gradientUnits="userSpaceOnUse" gradientTransform="matrix(551.601,517.83,-514.302,547.843,296.686,-197.403)">
			<stop offset="0" stop-color="#cea132"/>
			<stop offset=".247" stop-color="#fffe77"/>
			<stop offset=".674" stop-color="#cd9e2c"/>
			<stop offset="1" stop-color="#fff083"/>
		</linearGradient>
		<linearGradient id="g2" x2="1" gradientUnits="userSpaceOnUse" gradientTransform="matrix(719.585,-261.907,237.093,651.407,-151.639,104.171)">
			<stop offset="0" stop-color="#cea132"/>
			<stop offset=".247" stop-color="#fffe77"/>
			<stop offset=".674" stop-color="#cd9e2c"/>
			<stop offset="1" stop-color="#fff083"/>
		</linearGradient>
		<linearGradient id="g3" x2="1" gradientUnits="userSpaceOnUse" gradientTransform="matrix(0,-802.374,1354.366,0,212.422,527.291)">
			<stop offset="0" stop-color="#cea132"/>
			<stop offset=".247" stop-color="#fffe77"/>
			<stop offset=".674" stop-color="#cd9e2c"/>
			<stop offset="1" stop-color="#fff083"/>
		</linearGradient>
		<linearGradient id="g4" x2="1" gradientUnits="userSpaceOnUse" gradientTransform="matrix(590.101,0,0,353.041,19.446,25.089)">
			<stop offset="0" stop-color="#cea132"/>
			<stop offset=".247" stop-color="#fffe77"/>
			<stop offset=".674" stop-color="#cd9e2c"/>
			<stop offset="1" stop-color="#fff083"/>
		</linearGradient>
		<linearGradient id="g5" x2="1" gradientUnits="userSpaceOnUse" gradientTransform="matrix(0,-802.374,1354.366,0,212.422,527.291)">
			<stop offset="0" stop-color="#3b3b3b"/>
			<stop offset=".246" stop-color="#000000"/>
			<stop offset=".51" stop-color="#363636"/>
			<stop offset=".748" stop-color="#646464"/>
			<stop offset="1" stop-color="#101010"/>
		</linearGradient>
		<linearGradient id="g6" x2="1" gradientUnits="userSpaceOnUse" gradientTransform="matrix(0,253.765,-220.054,0,194.483,100.791)">
			<stop offset="0" stop-color="#cea132"/>
			<stop offset=".247" stop-color="#fffe77"/>
			<stop offset=".674" stop-color="#cd9e2c"/>
			<stop offset="1" stop-color="#fff083"/>
		</linearGradient>
		<linearGradient id="g7" x2="1" gradientUnits="userSpaceOnUse" gradientTransform="matrix(0,253.764,-193.184,0,342.716,100.791)">
			<stop offset="0" stop-color="#cea132"/>
			<stop offset=".247" stop-color="#fffe77"/>
			<stop offset=".674" stop-color="#cd9e2c"/>
			<stop offset="1" stop-color="#fff083"/>
		</linearGradient>
		<linearGradient id="g8" x2="1" gradientUnits="userSpaceOnUse" gradientTransform="matrix(0,253.764,-199.25,0,475.879,100.791)">
			<stop offset="0" stop-color="#cea132"/>
			<stop offset=".247" stop-color="#fffe77"/>
			<stop offset=".674" stop-color="#cd9e2c"/>
			<stop offset="1" stop-color="#fff083"/>
		</linearGradient>
		<linearGradient id="g9" x2="1" gradientUnits="userSpaceOnUse" gradientTransform="matrix(0,253.765,-198.655,0,624.436,100.791)">
			<stop offset="0" stop-color="#cea132"/>
			<stop offset=".247" stop-color="#fffe77"/>
			<stop offset=".674" stop-color="#cd9e2c"/>
			<stop offset="1" stop-color="#fff083"/>
		</linearGradient>
		<linearGradient id="g10" x2="1" gradientUnits="userSpaceOnUse" gradientTransform="matrix(544.482,1131.391,-2576.712,1240.046,362.364,-56.07)">
			<stop offset="0" stop-color="#000000"/>
			<stop offset="1" stop-color="#b3b3b3"/>
		</linearGradient>
	</defs>
	<style>
		.s0 { fill: url(#g1) } 
		.s1 { fill: url(#g2) } 
		.s2 { fill: url(#g3) } 
		.s3 { fill: url(#g4) } 
		.s4 { fill: url(#g5) } 
		.s5 { fill: url(#g6) } 
		.s6 { fill: url(#g7) } 
		.s7 { fill: url(#g8) } 
		.s8 { fill: url(#g9) } 
		.s9 { fill: #141414 } 
		.s10 { mix-blend-mode: screen;fill: url(#g10) } 
	</style>
	<g id="Layer 1">
	</g>
	<g id="&lt;Group&gt;">
		<g id="&lt;Group&gt;">
			<path id="&lt;Path&gt;" class="s0" d="m593.27 518.68h-557.54c-18.57 0-33.62-15.05-33.62-33.61v-439.34c0-18.57 15.05-33.62 33.62-33.62h557.54c18.56 0 33.61 15.05 33.61 33.62v439.34c0 18.56-15.05 33.61-33.61 33.61z"/>
			<path id="&lt;Compound Path&gt;" class="s1" d="m593.27 520.8h-557.54c-19.7 0-35.73-16.03-35.73-35.73v-439.34c0-19.7 16.03-35.73 35.73-35.73h557.54c19.7 0 35.73 16.03 35.73 35.73v439.34c0 19.7-16.03 35.73-35.73 35.73zm-557.54-506.58c-17.38 0-31.51 14.13-31.51 31.51v439.34c0 17.37 14.13 31.5 31.51 31.5h557.54c17.37 0 31.5-14.13 31.5-31.5v-439.34c0-17.38-14.13-31.51-31.5-31.51z"/>
		</g>
		<g id="&lt;Group&gt;">
			<path id="&lt;Path&gt;" class="s2" d="m580.31 373.9h-531.62c-13.82 0-25.02-11.2-25.02-25.01v-294.56c0-13.82 11.2-25.02 25.02-25.02h531.62c13.81 0 25.01 11.2 25.01 25.02v294.56c0 13.81-11.2 25.01-25.01 25.01z"/>
			<path id="&lt;Compound Path&gt;" class="s3" d="m580.31 25.09h-531.62c-16.13 0-29.24 13.11-29.24 29.24v294.56c0 16.12 13.11 29.24 29.24 29.24h531.62c16.12 0 29.24-13.12 29.24-29.24v-294.56c0-16.13-13.12-29.24-29.24-29.24zm0 4.22c13.82 0 25.02 11.2 25.02 25.02v294.56c0 13.81-11.2 25.01-25.02 25.01h-531.62c-13.82 0-25.02-11.2-25.02-25.01v-294.56c0-13.82 11.2-25.02 25.02-25.02z"/>
		</g>
		<path id="&lt;Path&gt;" class="s4" d="m580.31 373.9h-531.62c-13.82 0-25.02-11.2-25.02-25.01v-294.56c0-13.82 11.2-25.02 25.02-25.02h531.62c13.81 0 25.01 11.2 25.01 25.02v294.56c0 13.81-11.2 25.01-25.01 25.01z"/>
		<g id="&lt;Group&gt;">
			<path id="&lt;Compound Path&gt;" class="s5" d="m174.16 222.45h-28.4v37.34h-14.61v-37.34h-80.15v-10.54l75.29-94.16h16.22l-72.64 91.72h61.69v-32.87h14.2v32.87h28.4z"/>
			<path id="&lt;Compound Path&gt;" class="s6" d="m295.61 198.72q7.19 8.93 7.19 21.49 0 12.39-6.68 21.62-6.71 9.23-19.18 14.2-12.48 4.98-29.32 4.97-25.56 0-40.18-10.95-14.61-10.95-14.61-29.84 0-12.77 7.01-21.59 6.99-8.83 20.38-13.3-10.95-4.26-16.63-12.28-5.69-8.01-5.69-18.97 0-17.25 13.5-27.39 13.49-10.14 36.22-10.14 15.02-0.01 26.28 4.55 11.26 4.57 17.55 13.09 6.28 8.52 6.28 19.89 0 10.96-5.88 18.97-5.88 8.02-16.84 12.28 13.39 4.47 20.6 13.4zm-18.46 42.2q10.64-7.72 10.64-20.91 0-13.19-10.64-20.79-10.67-7.61-29.53-7.61-18.67 0-29.32 7.61-10.66 7.6-10.66 20.79 0 13.4 10.56 21.01 10.55 7.61 29.42 7.61 18.86 0 29.53-7.71zm-55.29-67.77q9.33 6.9 25.76 6.9 16.44 0 25.87-6.9 9.43-6.9 9.43-18.47 0-11.98-9.63-18.87-9.64-6.9-25.67-6.9-16.23 0-25.66 6.9-9.44 6.89-9.44 18.67 0 11.77 9.34 18.67z"/>
			<path id="&lt;Compound Path&gt;" class="s7" d="m354.45 252.27q-12.88-8.71-20.09-25.05-7.2-16.32-7.2-38.46 0-22.1 7.2-38.44 7.21-16.33 20.09-25.07 12.88-8.71 29.32-8.71 16.44 0 29.33 8.71 12.87 8.74 20.18 25.07 7.31 16.34 7.31 38.44 0 22.14-7.31 38.46-7.31 16.34-20.18 25.05-12.89 8.74-29.33 8.73-16.44 0.01-29.32-8.73zm51.13-11.55q9.44-6.9 14.71-20.1 5.27-13.18 5.27-31.86 0-18.65-5.27-31.85-5.27-13.18-14.71-20.09-9.43-6.89-21.81-6.9-12.38 0.01-21.82 6.9-9.43 6.91-14.71 20.09-5.27 13.2-5.27 31.85 0 18.68 5.27 31.86 5.28 13.2 14.71 20.1 9.44 6.9 21.82 6.89 12.38 0.01 21.81-6.89z"/>
			<path id="&lt;Compound Path&gt;" class="s8" d="m573.9 130.74q15.41 12.99 15.41 35.72 0 22.72-15.41 35.59-15.43 12.89-42.61 12.89h-38.15v44.85h-15.02v-142.04h53.17q27.18 0 42.61 12.99zm-10.75 61.78q11.15-9.23 11.15-26.06 0-17.25-11.15-26.49-11.17-9.23-32.28-9.23h-37.73v71.01h37.73q21.11 0 32.28-9.23z"/>
		</g>
		<g id="&lt;Group&gt;">
			<path id="&lt;Compound Path&gt;" class="s9" d="m245.01 489.63q-10.07-2.79-16.35-7.41l8.18-19.35q5.9 4.11 13.7 6.62 7.8 2.51 15.35 2.51 14.35 0 14.33-7.54 0-3.96-4.06-5.89-4.11-1.92-13.15-4.03-9.94-2.26-16.62-4.85-6.67-2.56-11.43-8.27-4.79-5.68-4.79-15.35 0-8.49 4.4-15.29 4.41-6.82 13.15-10.8 8.72-3.98 21.45-3.98 8.68 0.02 17.11 2.06 8.43 2.06 14.84 6.02l-7.69 19.46q-12.56-7.13-24.38-7.13-7.43 0-10.82 2.31-3.39 2.31-3.39 6.02-0.02 3.7 4.01 5.57 4.02 1.84 12.96 3.84 10.06 2.23 16.67 4.82 6.6 2.59 11.44 8.21 4.85 5.63 4.85 15.3 0 8.35-4.42 15.09-4.39 6.76-13.21 10.8-8.8 4.04-21.37 4.04-10.7-0.02-20.76-2.78z"/>
			<path id="&lt;Compound Path&gt;" class="s9" d="m319.98 397.86h41.64q14.46 0 25.66 5.69 11.19 5.7 17.37 16.17 6.15 10.45 6.15 24.48 0 14.04-6.15 24.51-6.18 10.45-17.37 16.15-11.2 5.69-25.66 5.69h-41.64zm40.64 71.77q11.31 0 18.17-6.75 6.84-6.76 6.86-18.68-0.02-11.92-6.86-18.66-6.86-6.77-18.17-6.77h-15.73v50.86z"/>
		</g>
		<path id="&lt;Path&gt;" class="s10" d="m580.31 29.31h-531.62c-13.82 0-25.02 11.2-25.02 25.02v294.56q0.01 1.07 0.11 2.11c65.14-81.33 243.12-255.76 581.54-273.08v-23.59c0-13.82-11.2-25.02-25.01-25.02z"/>
	</g>
</svg>