<svg version="1.2" xmlns="http://www.w3.org/2000/svg" viewBox="0 0 640 522" width="640" height="522">
	<defs>
		<linearGradient id="g1" x2="1" gradientUnits="userSpaceOnUse" gradientTransform="matrix(562.646,528.199,-524.601,558.813,300.72,-212.02)">
			<stop offset="0" stop-color="#cea132"/>
			<stop offset=".247" stop-color="#fffe77"/>
			<stop offset=".674" stop-color="#cd9e2c"/>
			<stop offset="1" stop-color="#fff083"/>
		</linearGradient>
		<linearGradient id="g2" x2="1" gradientUnits="userSpaceOnUse" gradientTransform="matrix(733.989,-267.15,241.837,664.442,-156.581,95.591)">
			<stop offset="0" stop-color="#cea132"/>
			<stop offset=".247" stop-color="#fffe77"/>
			<stop offset=".674" stop-color="#cd9e2c"/>
			<stop offset="1" stop-color="#fff083"/>
		</linearGradient>
		<linearGradient id="g3" x2="1" gradientUnits="userSpaceOnUse" gradientTransform="matrix(0,-818.44,1381.452,0,214.769,527.185)">
			<stop offset="0" stop-color="#cea132"/>
			<stop offset=".247" stop-color="#fffe77"/>
			<stop offset=".674" stop-color="#cd9e2c"/>
			<stop offset="1" stop-color="#fff083"/>
		</linearGradient>
		<linearGradient id="g4" x2="1" gradientUnits="userSpaceOnUse" gradientTransform="matrix(601.915,0,0,360.097,17.93,14.926)">
			<stop offset="0" stop-color="#cea132"/>
			<stop offset=".247" stop-color="#fffe77"/>
			<stop offset=".674" stop-color="#cd9e2c"/>
			<stop offset="1" stop-color="#fff083"/>
		</linearGradient>
		<linearGradient id="g5" x2="1" gradientUnits="userSpaceOnUse" gradientTransform="matrix(0,-818.44,1381.452,0,214.769,527.185)">
			<stop offset="0" stop-color="#3b3b3b"/>
			<stop offset=".246" stop-color="#000000"/>
			<stop offset=".51" stop-color="#363636"/>
			<stop offset=".748" stop-color="#646464"/>
			<stop offset="1" stop-color="#101010"/>
		</linearGradient>
		<linearGradient id="g6" x2="1" gradientUnits="userSpaceOnUse" gradientTransform="matrix(0,316.501,-293.445,0,319.435,64.844)">
			<stop offset="0" stop-color="#cea132"/>
			<stop offset=".247" stop-color="#fffe77"/>
			<stop offset=".674" stop-color="#cd9e2c"/>
			<stop offset="1" stop-color="#fff083"/>
		</linearGradient>
		<linearGradient id="g7" x2="1" gradientUnits="userSpaceOnUse" gradientTransform="matrix(199.929,0,0,215.31,105.686,84.52)">
			<stop offset="0" stop-color="#cea132"/>
			<stop offset=".247" stop-color="#fffe77"/>
			<stop offset=".674" stop-color="#cd9e2c"/>
			<stop offset="1" stop-color="#fff083"/>
		</linearGradient>
		<linearGradient id="g8" x2="1" gradientUnits="userSpaceOnUse" gradientTransform="matrix(0,316.501,-302.025,0,548.44,64.844)">
			<stop offset="0" stop-color="#cea132"/>
			<stop offset=".247" stop-color="#fffe77"/>
			<stop offset=".674" stop-color="#cd9e2c"/>
			<stop offset="1" stop-color="#fff083"/>
		</linearGradient>
		<linearGradient id="g9" x2="1" gradientUnits="userSpaceOnUse" gradientTransform="matrix(207.949,0,0,215.299,335.064,84.52)">
			<stop offset="0" stop-color="#cea132"/>
			<stop offset=".247" stop-color="#fffe77"/>
			<stop offset=".674" stop-color="#cd9e2c"/>
			<stop offset="1" stop-color="#fff083"/>
		</linearGradient>
		<linearGradient id="g10" x2="1" gradientUnits="userSpaceOnUse" gradientTransform="matrix(555.385,1154.045,-2628.242,1264.841,367.713,-67.858)">
			<stop offset="0" stop-color="#000000"/>
			<stop offset="1" stop-color="#b3b3b3"/>
		</linearGradient>
	</defs>
	<style>
		.s0 { fill: url(#g1) } 
		.s1 { fill: url(#g2) } 
		.s2 { fill: url(#g3) } 
		.s3 { fill: url(#g4) } 
		.s4 { fill: url(#g5) } 
		.s5 { fill: url(#g6) } 
		.s6 { fill: url(#g7) } 
		.s7 { fill: url(#g8) } 
		.s8 { fill: url(#g9) } 
		.s9 { fill: #141414 } 
		.s10 { mix-blend-mode: screen;fill: url(#g10) } 
	</style>
	<g id="Layer 1">
	</g>
	<g id="&lt;Group&gt;">
		<g id="&lt;Group&gt;">
			<path id="&lt;Path&gt;" class="s0" d="m603.24 518.41h-568.71c-18.93 0-34.28-15.36-34.28-34.29v-448.14c0-18.94 15.35-34.29 34.28-34.29h568.71c18.94 0 34.29 15.35 34.29 34.29v448.14c0 18.93-15.35 34.29-34.29 34.29z"/>
			<path id="&lt;Compound Path&gt;" class="s1" d="m603.24 520.56h-568.7c-20.09 0-36.45-16.35-36.45-36.44v-448.14c0-20.1 16.36-36.44 36.45-36.44h568.7c20.09 0 36.44 16.34 36.44 36.44v448.14c0 20.09-16.35 36.44-36.44 36.44zm-568.7-516.72c-17.72 0-32.14 14.42-32.14 32.14v448.14c0 17.72 14.42 32.13 32.14 32.13h568.7c17.72 0 32.13-14.41 32.13-32.13v-448.14c0-17.72-14.41-32.14-32.13-32.14z"/>
		</g>
		<g id="&lt;Group&gt;">
			<path id="&lt;Path&gt;" class="s2" d="m590.02 370.73h-542.27c-14.09 0-25.51-11.43-25.51-25.52v-300.46c0-14.09 11.42-25.52 25.51-25.52h542.27c14.09 0 25.52 11.43 25.52 25.52v300.46c0 14.09-11.43 25.52-25.52 25.52z"/>
			<path id="&lt;Compound Path&gt;" class="s3" d="m590.02 14.93h-542.27c-16.44 0-29.82 13.37-29.82 29.82v300.46c0 16.44 13.38 29.82 29.82 29.82h542.27c16.45 0 29.83-13.38 29.83-29.82v-300.46c0-16.45-13.38-29.82-29.83-29.82zm0 4.3c14.09 0 25.52 11.43 25.52 25.52v300.46c0 14.09-11.43 25.52-25.52 25.52h-542.27c-14.09 0-25.51-11.43-25.51-25.52v-300.46c0-14.09 11.42-25.52 25.51-25.52z"/>
		</g>
		<path id="&lt;Path&gt;" class="s4" d="m590.02 370.73h-542.27c-14.09 0-25.51-11.43-25.51-25.52v-300.46c0-14.09 11.42-25.52 25.51-25.52h542.27c14.09 0 25.52 11.43 25.52 25.52v300.46c0 14.09-11.43 25.52-25.52 25.52z"/>
		<g id="&lt;Group&gt;">
			<g id="&lt;Group&gt;">
				<path id="&lt;Compound Path&gt;" class="s5" d="m303.46 253.36h-34.36v44.3h-47.63v-44.3h-113.63v-32.86l99.47-133.83h51.24l-92.24 126.9h56.67v-39.49h46.12v39.49h34.36z"/>
				<path id="&lt;Compound Path&gt;" class="s6" d="m271.25 299.82h-51.93v-44.31h-113.63v-35.72l100.53-135.27h56.55l-92.23 126.9h50.29v-39.49h50.42v39.49h34.36v44.09h-34.36zm-47.62-4.31h43.31v-44.31h34.37v-35.48h-34.37v-39.48h-41.8v39.48h-63.05l92.23-126.89h-45.93l-98.4 132.39v29.98h113.64z"/>
			</g>
			<g id="&lt;Group&gt;">
				<path id="&lt;Compound Path&gt;" class="s7" d="m414.08 214.78l-28.33 29.53v53.35h-48.53v-210.99h48.53v98.57l93.43-98.57h54.26l-87.41 94.04 92.53 116.95h-56.96z"/>
				<path id="&lt;Compound Path&gt;" class="s8" d="m543.01 299.82h-62.43l-66.63-81.8-26.05 27.16v54.64h-52.84v-215.3h52.84v95.32l90.36-95.32h60.12l-89.52 96.31zm-60.39-4.31h51.5l-90.92-114.91 85.3-91.78h-48.39l-96.52 101.81v-101.81h-44.22v206.69h44.22v-52.06l30.62-31.93z"/>
			</g>
		</g>
		<g id="&lt;Group&gt;">
			<path id="&lt;Compound Path&gt;" class="s9" d="m30.34 473.53q-9.34-9.66-9.34-27.41v-44.12h21.38v43.45q0 19.1 14.39 19.1 14.25 0 14.25-19.1v-43.45h21.08v44.12q-0.02 17.75-9.36 27.41-9.35 9.67-26.2 9.67-16.85 0-26.2-9.67z"/>
			<path id="&lt;Compound Path&gt;" class="s9" d="m109.81 402h21.39v61.75h36.09v17.85h-57.48z"/>
			<path id="&lt;Compound Path&gt;" class="s9" d="m188.02 419.84h-23.22v-17.84h67.74v17.84h-23.12v61.76h-21.4z"/>
			<path id="&lt;Compound Path&gt;" class="s9" d="m276.85 460.45h-11.67v21.15h-21.4v-79.6h34.57q10.27 0 17.83 3.58 7.56 3.58 11.67 10.24 4.09 6.65 4.11 15.63-0.02 8.65-3.85 15.07-3.83 6.42-10.96 10.07l16.33 25.01h-22.91zm10.15-37.64q-3.35-3.07-9.94-3.07h-11.88v23.31h11.88q6.59 0 9.94-3 3.35-3.03 3.35-8.59 0-5.58-3.35-8.65z"/>
			<path id="&lt;Compound Path&gt;" class="s9" d="m377.64 466.13h-31.99l-5.94 15.47h-21.81l33.38-79.6h21.08l33.48 79.6h-22.25zm-6.26-16.61l-9.74-25.47-9.72 25.47z"/>
			<path id="&lt;Compound Path&gt;" class="s9" d="m521.77 402v79.6h-21.39v-31.04h-29.17v31.04h-21.4v-79.6h21.4v29.91h29.17v-29.91z"/>
			<path id="&lt;Compound Path&gt;" class="s9" d="m540.13 402h35.77q12.43 0 22.03 4.89 9.61 4.88 14.93 13.88 5.28 8.98 5.28 21.03 0 12.05-5.28 21.05-5.32 8.98-14.93 13.86-9.6 4.89-22.03 4.89h-35.77zm34.89 61.64q9.74 0 15.62-5.8 5.89-5.79 5.89-16.03 0-10.23-5.89-16.04-5.88-5.79-15.62-5.79h-13.5v43.66z"/>
		</g>
		<path id="&lt;Path&gt;" class="s10" d="m590.02 19.23h-542.27c-14.09 0-25.51 11.43-25.51 25.52v300.46q0.01 1.09 0.11 2.15c66.44-82.96 247.99-260.88 593.19-278.54v-24.07c0-14.09-11.43-25.52-25.52-25.52z"/>
	</g>
</svg>