<svg version="1.2" xmlns="http://www.w3.org/2000/svg" viewBox="0 0 640 530" width="640" height="530">
	<defs>
		<linearGradient id="g1" x2="1" gradientUnits="userSpaceOnUse" gradientTransform="matrix(562.646,528.199,-524.6,558.813,302.72,-213.044)">
			<stop offset="0" stop-color="#cea132"/>
			<stop offset=".247" stop-color="#fffe77"/>
			<stop offset=".674" stop-color="#cd9e2c"/>
			<stop offset="1" stop-color="#fff083"/>
		</linearGradient>
		<linearGradient id="g2" x2="1" gradientUnits="userSpaceOnUse" gradientTransform="matrix(729.572,-265.543,240.383,660.448,-151.193,95.478)">
			<stop offset="0" stop-color="#cea132"/>
			<stop offset=".247" stop-color="#fffe77"/>
			<stop offset=".674" stop-color="#cd9e2c"/>
			<stop offset="1" stop-color="#fff083"/>
		</linearGradient>
		<linearGradient id="g3" x2="1" gradientUnits="userSpaceOnUse" gradientTransform="matrix(0,-818.44,1381.492,0,216.769,526.161)">
			<stop offset="0" stop-color="#cea132"/>
			<stop offset=".247" stop-color="#fffe77"/>
			<stop offset=".674" stop-color="#cd9e2c"/>
			<stop offset="1" stop-color="#fff083"/>
		</linearGradient>
		<linearGradient id="g4" x2="1" gradientUnits="userSpaceOnUse" gradientTransform="matrix(601.915,0,0,360.107,19.93,13.903)">
			<stop offset="0" stop-color="#cea132"/>
			<stop offset=".247" stop-color="#fffe77"/>
			<stop offset=".674" stop-color="#cd9e2c"/>
			<stop offset="1" stop-color="#fff083"/>
		</linearGradient>
		<linearGradient id="g5" x2="1" gradientUnits="userSpaceOnUse" gradientTransform="matrix(0,-818.44,1381.492,0,216.769,526.161)">
			<stop offset="0" stop-color="#3b3b3b"/>
			<stop offset=".246" stop-color="#000000"/>
			<stop offset=".51" stop-color="#363636"/>
			<stop offset=".748" stop-color="#646464"/>
			<stop offset="1" stop-color="#101010"/>
		</linearGradient>
		<linearGradient id="g6" x2="1" gradientUnits="userSpaceOnUse" gradientTransform="matrix(0,277.23,-203.582,0,204.636,89.971)">
			<stop offset="0" stop-color="#cea132"/>
			<stop offset=".247" stop-color="#fffe77"/>
			<stop offset=".674" stop-color="#cd9e2c"/>
			<stop offset="1" stop-color="#fff083"/>
		</linearGradient>
		<linearGradient id="g7" x2="1" gradientUnits="userSpaceOnUse" gradientTransform="matrix(0,277.228,-201.055,0,338.547,89.971)">
			<stop offset="0" stop-color="#cea132"/>
			<stop offset=".247" stop-color="#fffe77"/>
			<stop offset=".674" stop-color="#cd9e2c"/>
			<stop offset="1" stop-color="#fff083"/>
		</linearGradient>
		<linearGradient id="g8" x2="1" gradientUnits="userSpaceOnUse" gradientTransform="matrix(0,277.228,-217.679,0,473.363,89.973)">
			<stop offset="0" stop-color="#cea132"/>
			<stop offset=".247" stop-color="#fffe77"/>
			<stop offset=".674" stop-color="#cd9e2c"/>
			<stop offset="1" stop-color="#fff083"/>
		</linearGradient>
		<linearGradient id="g9" x2="1" gradientUnits="userSpaceOnUse" gradientTransform="matrix(0,277.23,-217.046,0,635.657,89.971)">
			<stop offset="0" stop-color="#cea132"/>
			<stop offset=".247" stop-color="#fffe77"/>
			<stop offset=".674" stop-color="#cd9e2c"/>
			<stop offset="1" stop-color="#fff083"/>
		</linearGradient>
		<linearGradient id="g10" x2="1" gradientUnits="userSpaceOnUse" gradientTransform="matrix(555.385,1154.045,-2628.236,1264.838,369.713,-68.882)">
			<stop offset="0" stop-color="#000000"/>
			<stop offset="1" stop-color="#b3b3b3"/>
		</linearGradient>
	</defs>
	<style>
		.s0 { fill: url(#g1) } 
		.s1 { fill: url(#g2) } 
		.s2 { fill: url(#g3) } 
		.s3 { fill: url(#g4) } 
		.s4 { fill: url(#g5) } 
		.s5 { fill: url(#g6) } 
		.s6 { fill: url(#g7) } 
		.s7 { fill: url(#g8) } 
		.s8 { fill: url(#g9) } 
		.s9 { fill: #141414 } 
		.s10 { mix-blend-mode: screen;fill: url(#g10) } 
	</style>
	<g id="Layer 1">
		<g id="&lt;Group&gt;">
			<g id="&lt;Group&gt;">
				<path id="&lt;Path&gt;" class="s0" d="m605.24 517.38h-568.71c-18.93 0-34.28-15.35-34.28-34.29v-448.14c0-18.93 15.35-34.28 34.28-34.28h568.71c18.94 0 34.29 15.35 34.29 34.28v448.14c0 18.94-15.35 34.29-34.29 34.29z"/>
				<path id="&lt;Compound Path&gt;" class="s1" d="m604.06 517.89h-565.28c-19.98 0-36.23-16.25-36.23-36.22v-445.45c0-19.97 16.25-36.22 36.23-36.22h565.28c19.97 0 36.22 16.25 36.22 36.22v445.45c0 19.97-16.25 36.22-36.22 36.22zm-565.28-513.61c-17.62 0-31.95 14.33-31.95 31.94v445.45c0 17.61 14.33 31.94 31.95 31.94h565.28c17.61 0 31.94-14.33 31.94-31.94v-445.45c0-17.61-14.33-31.94-31.94-31.94z"/>
			</g>
			<g id="&lt;Group&gt;">
				<path id="&lt;Path&gt;" class="s2" d="m592.02 369.7h-542.27c-14.09 0-25.51-11.42-25.51-25.51v-300.46c0-14.1 11.42-25.52 25.51-25.52h542.27c14.09 0 25.52 11.42 25.52 25.52v300.46c0 14.09-11.43 25.51-25.52 25.51z"/>
				<path id="&lt;Compound Path&gt;" class="s3" d="m592.02 13.9h-542.27c-16.44 0-29.82 13.38-29.82 29.83v300.46c0 16.44 13.38 29.82 29.82 29.82h542.27c16.45 0 29.83-13.38 29.83-29.82v-300.46c0-16.45-13.38-29.83-29.83-29.83zm0 4.31c14.09 0 25.52 11.42 25.52 25.52v300.46c0 14.09-11.43 25.51-25.52 25.51h-542.27c-14.09 0-25.51-11.42-25.51-25.51v-300.46c0-14.1 11.42-25.52 25.51-25.52z"/>
			</g>
			<path id="&lt;Path&gt;" class="s4" d="m592.02 369.7h-542.27c-14.09 0-25.51-11.42-25.51-25.51v-300.46c0-14.1 11.42-25.52 25.51-25.52h542.27c14.09 0 25.52 11.42 25.52 25.52v300.46c0 14.09-11.43 25.51-25.52 25.51z"/>
			<g id="&lt;Group&gt;">
				<path id="&lt;Compound Path&gt;" class="s5" d="m155.95 108.5v11.31l-64.96 143.86h-17.28l63.84-140.98h-79.81v29.04h-15.74v-43.23z"/>
				<path id="&lt;Compound Path&gt;" class="s6" d="m287.39 249.48v14.19h-108.84v-11.31l64.51-63.16q12.2-11.98 16.51-20.74 4.32-8.76 4.32-17.62 0-13.74-9.41-21.39-9.42-7.66-26.94-7.66-27.26 0-42.33 17.3l-11.31-9.75q9.08-10.64 23.16-16.41 14.08-5.76 31.81-5.76 23.72 0 37.57 11.19 13.85 11.2 13.87 30.71 0 11.96-5.33 23.04-5.32 11.1-20.17 25.5l-52.75 51.87z"/>
				<path id="&lt;Compound Path&gt;" class="s7" d="m340.7 255.47q-14.08-9.53-21.94-27.37-7.88-17.85-7.88-42.02 0-24.15 7.88-42.01 7.86-17.84 21.94-27.37 14.08-9.53 32.03-9.53 17.97 0 32.05 9.53 14.06 9.53 22.05 27.37 7.98 17.86 7.98 42.01 0 24.17-7.98 42.02-7.99 17.84-22.05 27.37-14.08 9.53-32.05 9.53-17.95 0-32.03-9.53zm55.86-12.64q10.32-7.52 16.08-21.95 5.75-14.4 5.77-34.8-0.02-20.39-5.77-34.79-5.76-14.41-16.08-21.95-10.3-7.53-23.83-7.55-13.52 0.02-23.83 7.55-10.3 7.54-16.06 21.95-5.77 14.4-5.77 34.79 0 20.4 5.77 34.8 5.76 14.43 16.06 21.95 10.31 7.55 23.83 7.55 13.53 0 23.83-7.55z"/>
				<path id="&lt;Compound Path&gt;" class="s8" d="m580.45 122.69q16.83 14.19 16.85 39.01-0.02 24.83-16.85 38.9-16.85 14.08-46.56 14.08h-41.67v48.99h-16.4v-155.17h58.07q29.71 0 46.56 14.19zm-11.76 67.5q12.19-10.09 12.19-28.49 0-18.85-12.19-28.92-12.2-10.09-35.24-10.09h-41.23v77.58h41.23q23.04 0 35.24-10.08z"/>
			</g>
			<g id="&lt;Group&gt;">
				<path id="&lt;Compound Path&gt;" class="s9" d="m305.05 392v95.21h-25.58v-37.13h-34.89v37.13h-25.58v-95.21h25.58v35.79h34.89v-35.79z"/>
				<path id="&lt;Compound Path&gt;" class="s9" d="m327.02 392h42.76q14.87 0.02 26.37 5.86 11.49 5.85 17.83 16.59 6.32 10.75 6.34 25.16-0.02 14.42-6.34 25.17-6.34 10.74-17.83 16.59-11.5 5.84-26.37 5.84h-42.76zm41.73 73.71q11.63 0 18.68-6.93 7.03-6.93 7.05-19.17-0.02-12.25-7.05-19.18-7.05-6.93-18.68-6.93h-16.14v52.21z"/>
			</g>
			<path id="&lt;Path&gt;" class="s10" d="m592.02 18.21h-542.27c-14.09 0-25.51 11.42-25.51 25.52v300.46q0.01 1.08 0.11 2.15c66.44-82.96 247.99-260.88 593.19-278.54v-24.07c0-14.1-11.43-25.52-25.52-25.52z"/>
		</g>
	</g>
</svg>