<svg version="1.2" xmlns="http://www.w3.org/2000/svg" viewBox="0 0 640 522" width="640" height="522">
	<defs>
		<linearGradient id="g1" x2="1" gradientUnits="userSpaceOnUse" gradientTransform="matrix(561.092,526.74,-427.086,454.939,301.974,-211.092)">
			<stop offset="0" stop-color="#cea132"/>
			<stop offset=".247" stop-color="#fffe77"/>
			<stop offset=".674" stop-color="#cd9e2c"/>
			<stop offset="1" stop-color="#fff083"/>
		</linearGradient>
		<linearGradient id="g2" x2="1" gradientUnits="userSpaceOnUse" gradientTransform="matrix(731.962,-266.412,216.35,594.417,-154.063,95.669)">
			<stop offset="0" stop-color="#cea132"/>
			<stop offset=".247" stop-color="#fffe77"/>
			<stop offset=".674" stop-color="#cd9e2c"/>
			<stop offset="1" stop-color="#fff083"/>
		</linearGradient>
		<linearGradient id="g3" x2="1" gradientUnits="userSpaceOnUse" gradientTransform="matrix(0,-816.18,483.535,0,216.26,526.071)">
			<stop offset="0" stop-color="#cea132"/>
			<stop offset=".247" stop-color="#fffe77"/>
			<stop offset=".674" stop-color="#cd9e2c"/>
			<stop offset="1" stop-color="#fff083"/>
		</linearGradient>
		<linearGradient id="g4" x2="1" gradientUnits="userSpaceOnUse" gradientTransform="matrix(600.255,0,0,359.112,19.964,15.228)">
			<stop offset="0" stop-color="#cea132"/>
			<stop offset=".247" stop-color="#fffe77"/>
			<stop offset=".674" stop-color="#cd9e2c"/>
			<stop offset="1" stop-color="#fff083"/>
		</linearGradient>
		<linearGradient id="g5" x2="1" gradientUnits="userSpaceOnUse" gradientTransform="matrix(0,-816.18,483.535,0,216.26,526.071)">
			<stop offset="0" stop-color="#3b3b3b"/>
			<stop offset=".246" stop-color="#000000"/>
			<stop offset=".51" stop-color="#363636"/>
			<stop offset=".748" stop-color="#646464"/>
			<stop offset="1" stop-color="#101010"/>
		</linearGradient>
		<linearGradient id="g6" x2="1" gradientUnits="userSpaceOnUse" gradientTransform="matrix(0,315.626,-387.309,0,337.385,65.007)">
			<stop offset="0" stop-color="#cea132"/>
			<stop offset=".247" stop-color="#fffe77"/>
			<stop offset=".674" stop-color="#cd9e2c"/>
			<stop offset="1" stop-color="#fff083"/>
		</linearGradient>
		<linearGradient id="g7" x2="1" gradientUnits="userSpaceOnUse" gradientTransform="matrix(181.641,0,0,221.915,113.043,81.023)">
			<stop offset="0" stop-color="#cea132"/>
			<stop offset=".247" stop-color="#fffe77"/>
			<stop offset=".674" stop-color="#cd9e2c"/>
			<stop offset="1" stop-color="#fff083"/>
		</linearGradient>
		<linearGradient id="g8" x2="1" gradientUnits="userSpaceOnUse" gradientTransform="matrix(0,315.627,-330.747,0,544.651,65.007)">
			<stop offset="0" stop-color="#cea132"/>
			<stop offset=".247" stop-color="#fffe77"/>
			<stop offset=".674" stop-color="#cd9e2c"/>
			<stop offset="1" stop-color="#fff083"/>
		</linearGradient>
		<linearGradient id="g9" x2="1" gradientUnits="userSpaceOnUse" gradientTransform="matrix(207.375,0,0,214.704,331.865,84.629)">
			<stop offset="0" stop-color="#cea132"/>
			<stop offset=".247" stop-color="#fffe77"/>
			<stop offset=".674" stop-color="#cd9e2c"/>
			<stop offset="1" stop-color="#fff083"/>
		</linearGradient>
		<linearGradient id="g10" x2="1" gradientUnits="userSpaceOnUse" gradientTransform="matrix(553.851,1150.858,-636.492,306.312,368.782,-67.328)">
			<stop offset="0" stop-color="#000000"/>
			<stop offset="1" stop-color="#b3b3b3"/>
		</linearGradient>
	</defs>
	<style>
		.s0 { fill: url(#g1) } 
		.s1 { fill: url(#g2) } 
		.s2 { fill: url(#g3) } 
		.s3 { fill: url(#g4) } 
		.s4 { fill: url(#g5) } 
		.s5 { fill: url(#g6) } 
		.s6 { fill: url(#g7) } 
		.s7 { fill: url(#g8) } 
		.s8 { fill: url(#g9) } 
		.s9 { fill: #141414 } 
		.s10 { mix-blend-mode: screen;fill: url(#g10) } 
	</style>
	<g id="Layer 1">
	</g>
	<g id="&lt;Group&gt;">
		<g id="&lt;Group&gt;">
			<path id="&lt;Path&gt;" class="s0" d="m603.66 517.32h-567.14c-18.88 0-34.19-15.31-34.19-34.2v-446.9c0-18.88 15.31-34.19 34.19-34.19h567.14c18.88 0 34.19 15.31 34.19 34.19v446.9c0 18.89-15.31 34.2-34.19 34.2z"/>
			<path id="&lt;Compound Path&gt;" class="s1" d="m603.66 519.46h-567.14c-20.03 0-36.33-16.3-36.33-36.34v-446.9c0-20.04 16.3-36.34 36.33-36.34h567.14c20.03 0 36.34 16.3 36.34 36.34v446.9c0 20.04-16.31 36.34-36.34 36.34zm-567.14-515.29c-17.66 0-32.04 14.38-32.04 32.05v446.9c0 17.67 14.38 32.05 32.04 32.05h567.14c17.67 0 32.05-14.38 32.05-32.05v-446.9c0-17.67-14.38-32.05-32.05-32.05z"/>
		</g>
		<g id="&lt;Group&gt;">
			<path id="&lt;Path&gt;" class="s2" d="m590.48 370.05h-540.77c-14.06 0-25.45-11.4-25.45-25.45v-299.63c0-14.06 11.39-25.45 25.45-25.45h540.77c14.05 0 25.44 11.39 25.44 25.45v299.63c0 14.05-11.39 25.45-25.44 25.45z"/>
			<path id="&lt;Compound Path&gt;" class="s3" d="m590.48 15.23h-540.77c-16.4 0-29.75 13.34-29.75 29.74v299.63c0 16.4 13.35 29.74 29.75 29.74h540.77c16.4 0 29.74-13.34 29.74-29.74v-299.63c0-16.4-13.34-29.74-29.74-29.74zm0 4.29c14.05 0 25.44 11.39 25.44 25.45v299.63c0 14.05-11.39 25.45-25.44 25.45h-540.77c-14.06 0-25.45-11.4-25.45-25.45v-299.63c0-14.06 11.39-25.45 25.45-25.45z"/>
		</g>
		<path id="&lt;Path&gt;" class="s4" d="m590.48 370.05h-540.77c-14.06 0-25.45-11.4-25.45-25.45v-299.63c0-14.06 11.39-25.45 25.45-25.45h540.77c14.05 0 25.44 11.39 25.44 25.45v299.63c0 14.05-11.39 25.45-25.44 25.45z"/>
		<g id="&lt;Group&gt;">
			<g id="&lt;Group&gt;">
				<path id="&lt;Compound Path&gt;" class="s5" d="m284.27 207.01q8.26 12.63 8.26 29.16 0 19.54-11.12 34.11-11.12 14.59-31.26 22.55-20.14 7.96-46.59 7.96-26.45 0-46.44-7.96-19.99-7.96-30.96-22.55-10.97-14.57-10.97-34.11 0-16.53 8.26-29.16 8.27-12.62 23.6-20.44-11.72-7.21-18.03-18.19-6.32-10.96-6.32-25.09 0-18.34 10.22-31.87 10.22-13.52 28.56-20.89 18.33-7.36 42.08-7.36 24.05 0 42.53 7.36 18.49 7.37 28.71 20.89 10.22 13.53 10.22 31.87 0 14.13-6.31 25.09-6.32 10.98-18.34 18.19 15.63 7.82 23.9 20.44zm-51.7 49.75q10.67-8.27 10.67-22.1 0-13.82-10.67-21.94-10.68-8.12-29.01-8.12-18.04 0-28.56 8.12-10.52 8.12-10.52 21.94 0 14.13 10.52 22.25 10.52 8.11 28.56 8.11 18.33 0.01 29.01-8.26zm-52.61-130.76q-8.86 7.07-8.86 19.39 0 12.03 8.71 18.94 8.72 6.91 23.75 6.91 15.03 0 24.05-6.91 9.02-6.91 9.02-18.94 0-12.32-9.02-19.39-9.02-7.06-24.05-7.06-14.73 0-23.6 7.06z"/>
				<path id="&lt;Compound Path&gt;" class="s6" d="m203.56 302.94c-17.82 0-33.71-2.73-47.24-8.12-13.63-5.43-24.35-13.25-31.87-23.25-7.57-10.05-11.41-21.96-11.41-35.4 0-11.41 2.9-21.61 8.62-30.34 5.09-7.78 12.22-14.31 21.21-19.44-6.64-4.64-11.91-10.33-15.71-16.94-4.38-7.6-6.6-16.41-6.6-26.16 0-12.65 3.58-23.8 10.65-33.16 7.01-9.29 16.93-16.55 29.47-21.59 12.42-4.99 26.84-7.52 42.88-7.52 16.23 0 30.81 2.53 43.33 7.52 12.63 5.04 22.6 12.3 29.62 21.59 7.07 9.36 10.66 20.52 10.66 33.16 0 9.75-2.22 18.56-6.6 26.16-3.8 6.61-9.15 12.3-15.95 16.94 9.14 5.13 16.34 11.66 21.44 19.44 5.72 8.74 8.62 18.95 8.62 30.34 0 13.43-3.88 25.35-11.56 35.41-7.62 10-18.45 17.82-32.18 23.24-13.62 5.39-29.56 8.12-47.38 8.12zm0-217.62c-15.49 0-29.37 2.42-41.28 7.21-11.81 4.74-21.11 11.54-27.65 20.19-6.49 8.59-9.78 18.88-9.78 30.57 0 8.99 2.03 17.07 6.03 24.02 4 6.97 9.83 12.83 17.29 17.43l3.26 2.01-3.4 1.73c-9.84 5.02-17.51 11.65-22.78 19.71-5.25 8.01-7.91 17.42-7.91 27.98 0 12.49 3.54 23.53 10.53 32.82 7.05 9.36 17.15 16.71 30.04 21.84 13.02 5.19 28.37 7.81 45.65 7.81 17.28 0 32.69-2.63 45.8-7.81 13-5.13 23.21-12.49 30.35-21.85 7.08-9.3 10.68-20.34 10.68-32.81 0-10.54-2.66-19.96-7.92-27.98-5.27-8.06-13.03-14.68-23.06-19.7l-3.5-1.75 3.35-2.01c7.67-4.6 13.59-10.46 17.59-17.42 4-6.95 6.02-15.03 6.02-24.02 0-11.69-3.29-21.97-9.78-30.57-6.54-8.66-15.9-15.45-27.79-20.19-12.01-4.79-26.05-7.21-41.74-7.21zm0 181.85c-12.46 0-22.5-2.88-29.87-8.56-7.53-5.81-11.35-13.87-11.35-23.95 0-9.87 3.82-17.83 11.35-23.64 7.37-5.68 17.41-8.56 29.87-8.56 12.64 0 22.84 2.88 30.31 8.55 7.64 5.82 11.52 13.78 11.52 23.65 0 9.88-3.87 17.88-11.51 23.79-7.47 5.79-17.66 8.72-30.32 8.72zm0-60.42c-11.49 0-20.65 2.58-27.24 7.67-6.52 5.03-9.69 11.65-9.69 20.24 0 8.8 3.17 15.52 9.69 20.55 6.59 5.09 15.75 7.67 27.24 7.67 11.68 0 21-2.64 27.7-7.82 6.62-5.13 9.83-11.8 9.83-20.4 0-8.58-3.21-15.2-9.82-20.23-6.7-5.09-16.03-7.68-27.71-7.68zm0-33.36c-10.48 0-18.92-2.48-25.08-7.38-6.33-5.01-9.53-11.95-9.53-20.62 0-8.87 3.26-15.95 9.68-21.07 6.27-4.99 14.65-7.53 24.93-7.53 10.46 0 18.99 2.53 25.37 7.52 6.53 5.12 9.84 12.21 9.84 21.08 0 8.68-3.32 15.63-9.86 20.64-6.36 4.88-14.89 7.36-25.35 7.36zm0-52.3c-9.28 0-16.77 2.21-22.25 6.59-5.43 4.32-8.07 10.11-8.07 17.71 0 7.39 2.59 13.04 7.91 17.25 5.38 4.28 12.93 6.45 22.41 6.45 9.49 0 17.15-2.18 22.74-6.46 5.5-4.22 8.18-9.86 8.18-17.24 0-7.59-2.68-13.38-8.19-17.7-5.61-4.38-13.25-6.6-22.73-6.6z"/>
			</g>
			<g id="&lt;Group&gt;">
				<path id="&lt;Compound Path&gt;" class="s7" d="m410.66 214.52l-28.25 29.46v53.21h-48.4v-210.41h48.4v98.29l93.18-98.29h54.1l-87.17 93.78 92.28 116.63h-56.81z"/>
				<path id="&lt;Compound Path&gt;" class="s8" d="m539.24 299.33h-62.27l-66.44-81.57-25.98 27.08v54.49h-52.69v-214.7h52.69v95.05l90.11-95.05h59.96l-89.27 96.04zm-60.23-4.3h51.35l-90.67-114.59 85.07-91.52h-48.26l-96.25 101.53v-101.53h-44.1v206.11h44.1v-51.92l30.53-31.83z"/>
			</g>
		</g>
		<g id="&lt;Group&gt;">
			<path id="&lt;Compound Path&gt;" class="s9" d="m152.81 464.4q-5.65-5.84-5.65-16.56v-26.66h12.92v26.25q0 11.54 8.68 11.54 8.62 0 8.62-11.54v-26.25h12.73v26.66q0 10.72-5.65 16.56-5.64 5.84-15.83 5.84-10.18 0-15.82-5.84z"/>
			<path id="&lt;Compound Path&gt;" class="s9" d="m200.81 421.18h12.93v37.31h21.8v10.79h-34.73z"/>
			<path id="&lt;Compound Path&gt;" class="s9" d="m248.07 431.97h-14.04v-10.79h40.93v10.79h-13.97v37.31h-12.92z"/>
			<path id="&lt;Compound Path&gt;" class="s9" d="m301.72 456.5h-7.05v12.78h-12.92v-48.1h20.88q6.2 0 10.77 2.17 4.57 2.16 7.05 6.18 2.48 4.02 2.48 9.45 0 5.22-2.32 9.1-2.31 3.88-6.62 6.08l9.86 15.12h-13.84zm6.13-22.74q-2.03-1.86-6-1.86h-7.18v14.08h7.18q3.97 0 6-1.82 2.02-1.82 2.02-5.18 0-3.37-2.02-5.22z"/>
			<path id="&lt;Compound Path&gt;" class="s9" d="m362.62 459.93h-19.32l-3.59 9.35h-13.19l20.17-48.1h12.73l20.23 48.1h-13.44zm-3.79-10.03l-5.88-15.4-5.87 15.4z"/>
			<path id="&lt;Compound Path&gt;" class="s9" d="m449.68 421.18v48.1h-12.92v-18.76h-17.62v18.76h-12.93v-48.1h12.93v18.07h17.62v-18.07z"/>
			<path id="&lt;Compound Path&gt;" class="s9" d="m460.78 421.18h21.61q7.49 0 13.31 2.96 5.8 2.95 9 8.38 3.2 5.43 3.2 12.71 0 7.28-3.2 12.71-3.2 5.43-9 8.38-5.82 2.96-13.31 2.96h-21.61zm21.08 37.24q5.88-0.01 9.43-3.51 3.56-3.5 3.56-9.68 0-6.19-3.56-9.69-3.55-3.51-9.43-3.51h-8.16v26.39z"/>
		</g>
		<path id="&lt;Path&gt;" class="s10" d="m590.48 19.52h-540.77c-14.06 0-25.45 11.39-25.45 25.45v299.63q0.01 1.08 0.11 2.15c66.26-82.73 247.3-260.16 591.55-277.78v-24c0-14.06-11.39-25.45-25.44-25.45z"/>
	</g>
</svg>